<svg width="112" height="37" viewBox="0 0 112 37" fill="none" xmlns="http://www.w3.org/2000/svg">
<g id="FMU Logo Blue">
<g id="Group">
<path id="Vector" d="M58.5473 6.21806H44.3122C44.1115 6.21806 43.9547 6.27401 43.8434 6.38516C43.7313 6.49706 43.676 6.64148 43.676 6.81992V29.0238C43.676 29.2022 43.7313 29.3474 43.8434 29.4586C43.9547 29.5705 44.1115 29.6257 44.3122 29.6257H47.3938C47.796 29.6257 47.9967 29.4253 47.9967 29.0238V20.7973H55.9011C56.1018 20.7973 56.2578 20.7421 56.3699 20.6302C56.4813 20.5191 56.5373 20.3739 56.5373 20.1955V17.4531C56.5373 17.2746 56.4813 17.1302 56.3699 17.0183C56.2578 16.9072 56.1018 16.8512 55.9011 16.8512H47.9967V10.1634H58.5473C58.748 10.1634 58.904 10.1082 59.0161 9.99633C59.1274 9.88518 59.1835 9.74001 59.1835 9.56157V6.81916C59.1835 6.64072 59.1274 6.4963 59.0161 6.3844C58.904 6.27325 58.748 6.2173 58.5473 6.2173V6.21806Z" fill="white"/>
<path id="Vector_2" d="M87.5161 6.21794H84.7025C84.3678 6.21794 84.1217 6.37446 83.9656 6.68597L76.63 20.4971L69.2943 6.68597C69.1375 6.3737 68.8921 6.21794 68.5574 6.21794H65.7438C65.5431 6.21794 65.3864 6.27389 65.275 6.38504C65.163 6.49695 65.1077 6.64136 65.1077 6.8198V29.0237C65.1077 29.2021 65.163 29.3473 65.275 29.4584C65.3864 29.5704 65.5431 29.6256 65.7438 29.6256H68.7248C68.9255 29.6256 69.0815 29.5704 69.1936 29.4584C69.3056 29.3465 69.3609 29.2021 69.3609 29.0237V15.4803L74.9214 25.8465C75.0554 26.1588 75.2895 26.3146 75.625 26.3146H77.6016C77.9364 26.3146 78.1818 26.1588 78.3385 25.8465L83.899 15.5801V29.0229C83.899 29.2014 83.9543 29.3465 84.0664 29.4577C84.1777 29.5696 84.3345 29.6248 84.5352 29.6248H87.5161C87.9182 29.6248 88.1189 29.4244 88.1189 29.0229V6.8198C88.1189 6.41831 87.9182 6.21794 87.5161 6.21794Z" fill="white"/>
<path id="Vector_3" d="M111.565 6.01758L111.297 6.08412L108.182 7.2213C107.869 7.31052 107.713 7.54492 107.713 7.92373V21.1662C107.713 22.7268 107.289 23.9253 106.44 24.7608C105.591 25.597 104.464 26.0144 103.057 26.0144C101.65 26.0144 100.522 25.5963 99.6736 24.7608C98.8246 23.9245 98.4005 22.7268 98.4005 21.1662V6.5529C98.4005 6.19678 98.2551 6.01758 97.965 6.01758L97.6969 6.08412L94.582 7.2213C94.2472 7.31052 94.0798 7.54492 94.0798 7.92373V21.3C94.0798 23.3287 94.4986 24.9899 95.3363 26.2828C96.1739 27.5757 97.2675 28.5179 98.6186 29.1084C99.969 29.6989 101.449 29.9945 103.057 29.9945C104.665 29.9945 106.144 29.6989 107.495 29.1084C108.845 28.5179 109.934 27.5757 110.76 26.2828C111.586 24.9899 111.999 23.3294 111.999 21.3V6.5529C111.999 6.19678 111.854 6.01758 111.564 6.01758H111.565Z" fill="white"/>
<path id="Vector_4" d="M13.8245 0.0746042C13.6503 -0.0849347 13.3694 0.0269694 13.3534 0.262875L13.0096 5.39383C12.999 5.54807 12.8665 5.66452 12.712 5.65544L6.70469 5.2978C6.4381 5.28192 6.30178 5.61083 6.50096 5.78776L17.2235 15.3246C17.4045 15.4856 17.6915 15.3578 17.6923 15.1159L17.7264 3.7818C17.7264 3.70317 17.7483 3.56631 17.69 3.51263L13.8245 0.0746042Z" fill="white"/>
<path id="Vector_5" d="M11.338 4.38749C11.9707 4.09295 12.2444 3.34212 11.9494 2.71046C11.6544 2.07881 10.9023 1.80553 10.2696 2.10007C9.63692 2.39462 9.36319 3.14545 9.65822 3.7771C9.95325 4.40876 10.7053 4.68204 11.338 4.38749Z" fill="white"/>
<path id="Vector_6" d="M15.1786 16.5904L5.36414 10.8939C5.29598 10.8545 5.18843 10.7668 5.1127 10.791L0.19751 12.4144C-0.0281801 12.4847 -0.071349 12.7841 0.124804 12.9157L4.40382 15.7783C4.53257 15.8645 4.56741 16.0377 4.48183 16.1662L1.16843 21.1815C1.0215 21.4038 1.23811 21.6865 1.49182 21.6026L15.1264 17.1C15.3566 17.0236 15.3892 16.7121 15.1794 16.5904H15.1786Z" fill="white"/>
<path id="Vector_7" d="M2.7891 16.6507C2.82697 15.9543 2.29228 15.36 1.59476 15.3222C0.897243 15.2844 0.301968 15.8182 0.2641 16.5146C0.226233 17.2109 0.760921 17.8052 1.45844 17.8431C2.15596 17.8809 2.75123 17.347 2.7891 16.6507Z" fill="white"/>
<path id="Vector_8" d="M15.2164 19.5104L5.36783 25.1479C5.29967 25.1872 5.17017 25.2364 5.15275 25.3135L4.10306 30.3749C4.05156 30.6047 4.28937 30.7923 4.50143 30.6879L9.12428 28.4196C9.26288 28.3515 9.43101 28.4082 9.49993 28.5459L12.1938 33.9188C12.3135 34.1569 12.6664 34.1108 12.7209 33.85L15.6329 19.8105C15.6822 19.5731 15.4277 19.3894 15.2171 19.5096L15.2164 19.5104Z" fill="white"/>
<path id="Vector_9" d="M9.04876 30.0958C8.46409 29.7155 7.68023 29.8803 7.29928 30.464C6.91834 31.0478 7.08344 31.8303 7.66811 32.2107C8.25279 32.591 9.03664 32.4262 9.41759 31.8424C9.79853 31.2587 9.63343 30.4761 9.04876 30.0958Z" fill="white"/>
<path id="Vector_10" d="M18.2376 20.6875C18.0566 20.5265 17.7696 20.6543 17.7688 20.8962L17.7348 32.2303C17.7348 32.3089 17.7128 32.4458 17.7711 32.4995L21.6366 35.9382C21.8108 36.0978 22.0918 35.9859 22.1077 35.75L22.4515 30.619C22.4621 30.4648 22.5947 30.3483 22.7492 30.3574L28.7565 30.715C29.023 30.7309 29.1594 30.402 28.9602 30.2251L18.2376 20.6883V20.6875Z" fill="white"/>
<path id="Vector_11" d="M25.1918 33.7463C25.8244 33.4517 26.0982 32.7009 25.8031 32.0692C25.5081 31.4376 24.7561 31.1643 24.1234 31.4588C23.4907 31.7534 23.217 32.5042 23.512 33.1359C23.807 33.7675 24.5591 34.0408 25.1918 33.7463Z" fill="white"/>
<path id="Vector_12" d="M35.3362 23.1374L31.0572 20.2747C30.9285 20.1885 30.8936 20.0154 30.9792 19.8868L34.2926 14.8716C34.4395 14.6493 34.2229 14.3665 33.9692 14.4504L20.3347 18.953C20.1044 19.0294 20.0719 19.3409 20.2817 19.4627L30.0961 25.1592C30.1643 25.1985 30.2718 25.2862 30.3476 25.262L35.2635 23.6387C35.4892 23.5683 35.5324 23.2689 35.3362 23.1374Z" fill="white"/>
<path id="Vector_13" d="M32.6711 19.5158C32.6332 20.2122 33.1679 20.8065 33.8654 20.8443C34.5629 20.8821 35.1582 20.3483 35.1961 19.6519C35.2339 18.9555 34.6993 18.3612 34.0017 18.3234C33.3042 18.2856 32.709 18.8194 32.6711 19.5158Z" fill="white"/>
<path id="Vector_14" d="M20.2438 16.5449L30.0923 10.9074C30.1605 10.8681 30.29 10.8189 30.3074 10.7418L31.3571 5.68042C31.4086 5.45056 31.1708 5.26305 30.9587 5.36739L26.3359 7.63572C26.1973 7.70377 26.0292 7.64706 25.9602 7.50945L23.2663 2.13654C23.1467 1.89837 22.7938 1.94449 22.7392 2.20535L19.8272 16.2448C19.778 16.4822 20.0325 16.6659 20.243 16.5457L20.2438 16.5449Z" fill="white"/>
<path id="Vector_15" d="M28.1057 5.48136C28.5683 4.95937 28.5194 4.16184 27.9966 3.70003C27.4737 3.23821 26.6749 3.28699 26.2123 3.80898C25.7497 4.33097 25.7986 5.12849 26.3214 5.59031C26.8443 6.05212 27.6431 6.00335 28.1057 5.48136Z" fill="white"/>
</g>
</g>
</svg>
